<?xml version="1.0" encoding="utf-8"?>
<!-- Generator: Adobe Illustrator 21.1.0, SVG Export Plug-In . SVG Version: 6.00 Build 0)  -->
<svg version="1.1" id="Layer_1" xmlns="http://www.w3.org/2000/svg" xmlns:xlink="http://www.w3.org/1999/xlink" x="0px" y="0px"
	 viewBox="0 0 688 404.5" style="enable-background:new 0 0 688 404.5;" xml:space="preserve">
<style type="text/css">
	.st0{fill:none;stroke:#FF0000;stroke-width:2.834646e-02;}
</style>
<g transform="translate(270.53171849999995, 22.5000185) ">
	<polygon class="st0" points="-54.1,-4.5 -21.5,-4.5 -21.5,4 11.1,4 11.1,-4.5 33.8,-4.5 33.8,4 56.4,4 56.4,-4.5 79.1,-4.5 79.1,4 
		111.7,4 111.7,-4.5 144.3,-4.5 144.3,18.2 135.8,18.2 135.8,40.9 144.3,40.9 144.3,63.5 135.8,63.5 135.8,86.2 144.3,86.2 
		144.3,108.9 111.7,108.9 111.7,100.4 79.1,100.4 79.1,108.9 56.4,108.9 56.4,100.4 33.8,100.4 33.8,108.9 11.1,108.9 11.1,100.4 
		-21.5,100.4 -21.5,108.9 -54.1,108.9 -54.1,86.2 -45.6,86.2 -45.6,63.5 -54.1,63.5 -54.1,40.9 -45.6,40.9 -45.6,18.2 -54.1,18.2 	
		"/>
</g>
<g transform="translate(518.5634185, 22.5000185) ">
	<polygon class="st0" points="-95.2,-4.5 -68.3,-4.5 -68.3,4 -32.8,4 -32.8,-4.5 -10.2,-4.5 -10.2,4 12.5,4 12.5,-4.5 35.2,-4.5 
		35.2,4 57.9,4 57.9,-4.5 80.5,-4.5 80.5,4 116,4 116,-4.5 142.9,-4.5 142.9,18.2 151.4,18.2 151.4,40.9 142.9,40.9 142.9,63.5 
		151.4,63.5 151.4,86.2 142.9,86.2 142.9,108.9 116,108.9 116,100.4 80.5,100.4 80.5,108.9 57.9,108.9 57.9,100.4 35.2,100.4 
		35.2,108.9 12.5,108.9 12.5,100.4 -10.2,100.4 -10.2,108.9 -32.8,108.9 -32.8,100.4 -68.3,100.4 -68.3,108.9 -95.2,108.9 
		-95.2,86.2 -103.7,86.2 -103.7,63.5 -95.2,63.5 -95.2,40.9 -103.7,40.9 -103.7,18.2 -95.2,18.2 	"/>
</g>
<g transform="translate(518.5634185, 164.2324185) ">
	<polygon class="st0" points="-95.2,-32.8 -68.3,-32.8 -68.3,-24.3 -32.8,-24.3 -32.8,-32.8 -10.2,-32.8 -10.2,-24.3 12.5,-24.3 
		12.5,-32.8 35.2,-32.8 35.2,-24.3 57.9,-24.3 57.9,-32.8 80.5,-32.8 80.5,-24.3 116,-24.3 116,-32.8 142.9,-32.8 142.9,-10.2 
		151.4,-10.2 151.4,12.5 142.9,12.5 142.9,35.2 151.4,35.2 151.4,57.9 142.9,57.9 142.9,80.5 116,80.5 116,72 80.5,72 80.5,80.5 
		57.9,80.5 57.9,72 35.2,72 35.2,80.5 12.5,80.5 12.5,72 -10.2,72 -10.2,80.5 -32.8,80.5 -32.8,72 -68.3,72 -68.3,80.5 -95.2,80.5 
		-95.2,57.9 -103.7,57.9 -103.7,35.2 -95.2,35.2 -95.2,12.5 -103.7,12.5 -103.7,-10.2 -95.2,-10.2 	"/>
</g>
<g transform="translate(270.53171849999995, 164.2324185) ">
	<polygon class="st0" points="-45.6,-24.3 -21.5,-24.3 -21.5,-32.8 11.1,-32.8 11.1,-24.3 33.8,-24.3 33.8,-32.8 56.4,-32.8 
		56.4,-24.3 79.1,-24.3 79.1,-32.8 111.7,-32.8 111.7,-24.3 135.8,-24.3 135.8,2.6 144.3,2.6 144.3,38 135.8,38 135.8,60.7 
		144.3,60.7 144.3,83.4 135.8,83.4 135.8,106.1 144.3,106.1 144.3,128.7 135.8,128.7 135.8,151.4 144.3,151.4 144.3,186.8 
		135.8,186.8 135.8,213.8 111.7,213.8 111.7,222.3 79.1,222.3 79.1,213.8 56.4,213.8 56.4,222.3 33.8,222.3 33.8,213.8 11.1,213.8 
		11.1,222.3 -21.5,222.3 -21.5,213.8 -45.6,213.8 -45.6,186.8 -54.1,186.8 -54.1,151.4 -45.6,151.4 -45.6,128.7 -54.1,128.7 
		-54.1,106.1 -45.6,106.1 -45.6,83.4 -54.1,83.4 -54.1,60.7 -45.6,60.7 -45.6,38 -54.1,38 -54.1,2.6 -45.6,2.6 	"/>
</g>
<path class="st0" d="M216.4,40.7V18h-32.6v8.5h-32.6V18h-22.7v8.5h-22.7V18H83.2v8.5H50.6V18H18v22.7h8.5v22.7H18V86h8.5v22.7H18
	v22.7h32.6v-8.5h32.6v8.5h22.7v-8.5h22.7v8.5h22.7v-8.5h32.6v8.5h32.6v-22.7h-8.5V86h8.5V63.4h-8.5V40.7H216.4z M74.7,103
	C59,103,46.3,90.3,46.3,74.7C46.3,59,59,46.3,74.7,46.3C90.3,46.3,103,59,103,74.7C103,90.3,90.3,103,74.7,103z"/>
<path class="st0" d="M216.4,202.3v-35.4h-8.5v-26.9h-24.1v-8.5h-32.6v8.5h-22.7v-8.5h-22.7v8.5H83.2v-8.5H50.6v8.5H26.5v26.9H18
	v35.4h8.5v22.7H18v22.7h8.5v22.7H18V293h8.5v22.7H18v35.4h8.5V378h24.1v8.5h32.6V378h22.7v8.5h22.7V378h22.7v8.5h32.6V378h24.1
	v-26.9h8.5v-35.4h-8.5V293h8.5v-22.7h-8.5v-22.7h8.5v-22.7h-8.5v-22.7H216.4z M52.9,358.2H38.8V159.7h14.2V358.2z"/>
<rect x="-239.5" y="127.9" class="st0" width="1700.8" height="850.4"/>
</svg>
