<?xml version="1.0" encoding="utf-8"?>
<!-- Generator: Adobe Illustrator 21.1.0, SVG Export Plug-In . SVG Version: 6.00 Build 0)  -->
<svg version="1.1" id="Layer_1" xmlns="http://www.w3.org/2000/svg" xmlns:xlink="http://www.w3.org/1999/xlink" x="0px" y="0px"
	 viewBox="0 0 170.1 368.5" style="enable-background:new 0 0 170.1 368.5;" xml:space="preserve">
<style type="text/css">
	.st0{fill:none;stroke:#FF0000;stroke-width:2.834646e-02;}
	.st1{fill:none;stroke:#FF0000;stroke-width:2.834646e-02;stroke-miterlimit:10;}
</style>
<g>
	<g transform="translate(199.6655185, 93.3662185) ">
		<polygon class="st0" points="-177,-70.7 -169.9,-70.7 -169.9,-79.2 -154.4,-79.2 -154.4,-70.7 -143,-70.7 -143,-79.2 
			-131.7,-79.2 -131.7,-70.7 -120.3,-70.7 -120.3,-79.2 -109,-79.2 -109,-70.7 -97.7,-70.7 -97.7,-79.2 -86.3,-79.2 -86.3,-70.7 
			-75,-70.7 -75,-79.2 -59.4,-79.2 -59.4,-70.7 -52.3,-70.7 -52.3,-65 -43.8,-65 -43.8,-50.8 -52.3,-50.8 -52.3,-39.5 -43.8,-39.5 
			-43.8,-28.1 -52.3,-28.1 -52.3,-16.8 -43.8,-16.8 -43.8,-5.5 -52.3,-5.5 -52.3,5.9 -43.8,5.9 -43.8,17.2 -52.3,17.2 -52.3,28.5 
			-43.8,28.5 -43.8,39.9 -52.3,39.9 -52.3,51.2 -43.8,51.2 -43.8,62.6 -52.3,62.6 -52.3,73.9 -43.8,73.9 -43.8,85.2 -52.3,85.2 
			-52.3,96.6 -43.8,96.6 -43.8,107.9 -52.3,107.9 -52.3,119.3 -43.8,119.3 -43.8,130.6 -52.3,130.6 -52.3,141.9 -43.8,141.9 
			-43.8,153.3 -52.3,153.3 -52.3,164.6 -43.8,164.6 -43.8,175.9 -52.3,175.9 -52.3,187.3 -43.8,187.3 -43.8,198.6 -52.3,198.6 
			-52.3,210 -43.8,210 -43.8,221.3 -52.3,221.3 -52.3,232.6 -43.8,232.6 -43.8,246.8 -52.3,246.8 -52.3,252.5 -59.4,252.5 
			-59.4,261 -75,261 -75,252.5 -86.3,252.5 -86.3,261 -97.7,261 -97.7,252.5 -109,252.5 -109,261 -120.3,261 -120.3,252.5 
			-131.7,252.5 -131.7,261 -143,261 -143,252.5 -154.4,252.5 -154.4,261 -169.9,261 -169.9,252.5 -177,252.5 -177,246.8 
			-185.5,246.8 -185.5,232.6 -177,232.6 -177,221.3 -185.5,221.3 -185.5,210 -177,210 -177,198.6 -185.5,198.6 -185.5,187.3 
			-177,187.3 -177,175.9 -185.5,175.9 -185.5,164.6 -177,164.6 -177,153.3 -185.5,153.3 -185.5,141.9 -177,141.9 -177,130.6 
			-185.5,130.6 -185.5,119.3 -177,119.3 -177,107.9 -185.5,107.9 -185.5,96.6 -177,96.6 -177,85.2 -185.5,85.2 -185.5,73.9 
			-177,73.9 -177,62.6 -185.5,62.6 -185.5,51.2 -177,51.2 -177,39.9 -185.5,39.9 -185.5,28.5 -177,28.5 -177,17.2 -185.5,17.2 
			-185.5,5.9 -177,5.9 -177,-5.5 -185.5,-5.5 -185.5,-16.8 -177,-16.8 -177,-28.1 -185.5,-28.1 -185.5,-39.5 -177,-39.5 -177,-50.8 
			-185.5,-50.8 -185.5,-65 -177,-65 		"/>
	</g>
	<path d="M85,306.2c-7.8,0-14.2,6.3-14.2,14.2c0,7.8,6.3,14.2,14.2,14.2s14.2-6.3,14.2-14.2C99.2,312.6,92.8,306.2,85,306.2z
		 M82.4,329.5c-0.7,1.1-2.5,1.1-3.4,0.1c-0.6-0.7-0.6-2.5-0.5-3.7c0.7-0.1,1.4-0.2,2.2-0.2c0.6,0,1.2,0.1,1.7,0.1
		C82.7,326.8,83.1,328.4,82.4,329.5z M83.5,320.2c-0.2,0.6-0.7,1.8-1,2.9c-0.2,0.8-0.2,1.6-0.1,2.2c-0.5-0.1-1.1-0.1-1.7-0.1
		c-0.7,0-1.5,0.1-2.2,0.2c0-0.2,0-0.4,0-0.5c0-1-0.5-2.6-0.7-3.4c-0.5-2.3,1.4-6.6,3.3-6.7C83.1,314.6,83.9,319,83.5,320.2z
		 M90.9,325.4c-0.8,1-2.6,1-3.4-0.1c-0.7-1-0.3-2.5-0.1-3.4c0.6-0.1,1.2-0.1,1.8-0.1c0.7,0,1.5,0.1,2.2,0.2
		C91.5,323.1,91.5,324.7,90.9,325.4z M92.1,317.2c-0.2,0.8-0.7,2.5-0.7,3.4c0,0.1,0,0.4,0,0.7c-0.7-0.1-1.4-0.2-2.2-0.2
		c-0.6,0-1.1,0-1.7,0.1c0.1-0.5,0.1-1.4-0.1-2.3c-0.3-1.1-0.8-2.3-1-2.9c-0.4-1.2,0.4-5.6,2.3-5.5C90.7,310.5,92.6,314.9,92.1,317.2
		z"/>
	<g>
		<path d="M126.1,41.9h-13.7v-0.4c0-1.5-1.2-2.6-2.6-2.6H91.4c-1.5,0-2.6,1.2-2.6,2.6v0.4h-7.5v-0.4c0-1.5-1.2-2.6-2.6-2.6H60.2
			c-1.5,0-2.6,1.2-2.6,2.6v0.4H43.9c-3.4,0-6.2,2.8-6.2,6.2v243.8c0,3.4,2.8,6.2,6.2,6.2h19.8c2.5,0,4.7-1.5,5.7-3.7
			c0.9,2.2,3.1,3.7,5.7,3.7H95c2.5,0,4.7-1.5,5.7-3.7c0.9,2.2,3.1,3.7,5.7,3.7h19.8c3.4,0,6.2-2.8,6.2-6.2V48.1
			C132.3,44.7,129.5,41.9,126.1,41.9z M63.8,297H43.9c-2.9,0-5.2-2.3-5.2-5.2V48.1c0-2.9,2.3-5.2,5.2-5.2h13.7v192.8
			c0,1.5,1.2,2.6,2.6,2.6h8.7v53.5C68.9,294.7,66.6,297,63.8,297z M95,297H75.1c-2.9,0-5.2-2.3-5.2-5.2v-53.5h8.7
			c1.5,0,2.6-1.2,2.6-2.6V42.9h7.5v192.8c0,1.5,1.2,2.6,2.6,2.6h8.7v53.5C100.1,294.7,97.8,297,95,297z M131.3,291.9
			c0,2.9-2.3,5.2-5.2,5.2h-19.8c-2.9,0-5.2-2.3-5.2-5.2v-53.5h8.7c1.5,0,2.6-1.2,2.6-2.6V42.9h13.7c2.9,0,5.2,2.3,5.2,5.2V291.9z"/>
		<path class="st1" d="M112,143.2v92.6c0,1.2-1,2.1-2.1,2.1h-9.2v54c0,3.1,2.5,5.7,5.7,5.7h19.8c3.1,0,5.7-2.5,5.7-5.7V143.2"/>
		<path class="st1" d="M100.6,237.9h-9.2c-1.2,0-2.1-1-2.1-2.1v-92.6"/>
		<path class="st1" d="M80.8,143.2v92.6c0,1.2-1,2.1-2.1,2.1h-9.2"/>
		<path class="st1" d="M38.3,143.2v148.7c0,3.1,2.5,5.7,5.7,5.7h19.8c3.1,0,5.7-2.5,5.7-5.7v-54h-9.2c-1.2,0-2.1-1-2.1-2.1v-92.6"/>
		<path class="st1" d="M69.4,291.9c0,3.1,2.5,5.7,5.7,5.7H95c3.1,0,5.7-2.5,5.7-5.7"/>
	</g>
</g>
</svg>
