<?xml version="1.0" encoding="utf-8"?>
<!-- Generator: Adobe Illustrator 21.1.0, SVG Export Plug-In . SVG Version: 6.00 Build 0)  -->
<svg version="1.1" id="Layer_1" xmlns="http://www.w3.org/2000/svg" xmlns:xlink="http://www.w3.org/1999/xlink" x="0px" y="0px"
	 viewBox="0 0 659.6 432.9" style="enable-background:new 0 0 659.6 432.9;" xml:space="preserve">
<style type="text/css">
	.st0{fill:none;stroke:#FF0000;stroke-width:2.834646e-02;}
	.st1{fill:none;stroke:#FF0000;stroke-width:2.834646e-02;stroke-miterlimit:10;}
</style>
<g transform="translate(22.5000185, 22.5000185) ">
	<polygon class="st0" points="-4.5,-4.5 11.1,-4.5 11.1,4 26.7,4 26.7,-4.5 38,-4.5 38,4 49.4,4 49.4,-4.5 60.7,-4.5 60.7,4 72,4 
		72,-4.5 83.4,-4.5 83.4,4 94.7,4 94.7,-4.5 106.1,-4.5 106.1,4 121.6,4 121.6,-4.5 137.2,-4.5 137.2,6.8 128.7,6.8 128.7,18.2 
		137.2,18.2 137.2,29.5 128.7,29.5 128.7,40.9 137.2,40.9 137.2,52.2 121.6,52.2 121.6,43.7 106.1,43.7 106.1,52.2 94.7,52.2 
		94.7,43.7 83.4,43.7 83.4,52.2 72,52.2 72,43.7 60.7,43.7 60.7,52.2 49.4,52.2 49.4,43.7 38,43.7 38,52.2 26.7,52.2 26.7,43.7 
		11.1,43.7 11.1,52.2 -4.5,52.2 -4.5,40.9 4,40.9 4,29.5 -4.5,29.5 -4.5,18.2 4,18.2 4,6.8 -4.5,6.8 	"/>
</g>
<g transform="translate(199.6655185, 22.5000185) ">
	<polygon class="st0" points="-39.9,-4.5 -24.3,-4.5 -24.3,4 -8.8,4 -8.8,-4.5 2.6,-4.5 2.6,4 13.9,4 13.9,-4.5 25.3,-4.5 25.3,4 
		36.6,4 36.6,-4.5 47.9,-4.5 47.9,4 59.3,4 59.3,-4.5 70.6,-4.5 70.6,4 86.2,4 86.2,-4.5 101.8,-4.5 101.8,6.8 93.3,6.8 93.3,18.2 
		101.8,18.2 101.8,29.5 93.3,29.5 93.3,40.9 101.8,40.9 101.8,52.2 86.2,52.2 86.2,43.7 70.6,43.7 70.6,52.2 59.3,52.2 59.3,43.7 
		47.9,43.7 47.9,52.2 36.6,52.2 36.6,43.7 25.3,43.7 25.3,52.2 13.9,52.2 13.9,43.7 2.6,43.7 2.6,52.2 -8.8,52.2 -8.8,43.7 
		-24.3,43.7 -24.3,52.2 -39.9,52.2 -39.9,40.9 -31.4,40.9 -31.4,29.5 -39.9,29.5 -39.9,18.2 -31.4,18.2 -31.4,6.8 -39.9,6.8 	"/>
</g>
<g transform="translate(376.83101849999997, 22.5000185) ">
	<polygon class="st0" points="-66.9,-4.5 -61.2,-4.5 -61.2,4 -47,4 -47,-4.5 -35.7,-4.5 -35.7,4 -24.3,4 -24.3,-4.5 -13,-4.5 -13,4 
		-1.7,4 -1.7,-4.5 9.7,-4.5 9.7,4 21,4 21,-4.5 32.4,-4.5 32.4,4 43.7,4 43.7,-4.5 55,-4.5 55,4 66.4,4 66.4,-4.5 77.7,-4.5 77.7,4 
		89,4 89,-4.5 100.4,-4.5 100.4,4 111.7,4 111.7,-4.5 123.1,-4.5 123.1,4 134.4,4 134.4,-4.5 145.7,-4.5 145.7,4 157.1,4 
		157.1,-4.5 168.4,-4.5 168.4,4 179.8,4 179.8,-4.5 191.1,-4.5 191.1,4 202.4,4 202.4,-4.5 213.8,-4.5 213.8,4 225.1,4 225.1,-4.5 
		236.4,-4.5 236.4,4 250.6,4 250.6,-4.5 256.3,-4.5 256.3,6.8 264.8,6.8 264.8,18.2 256.3,18.2 256.3,29.5 264.8,29.5 264.8,40.9 
		256.3,40.9 256.3,52.2 250.6,52.2 250.6,43.7 236.4,43.7 236.4,52.2 225.1,52.2 225.1,43.7 213.8,43.7 213.8,52.2 202.4,52.2 
		202.4,43.7 191.1,43.7 191.1,52.2 179.8,52.2 179.8,43.7 168.4,43.7 168.4,52.2 157.1,52.2 157.1,43.7 145.7,43.7 145.7,52.2 
		134.4,52.2 134.4,43.7 123.1,43.7 123.1,52.2 111.7,52.2 111.7,43.7 100.4,43.7 100.4,52.2 89,52.2 89,43.7 77.7,43.7 77.7,52.2 
		66.4,52.2 66.4,43.7 55,43.7 55,52.2 43.7,52.2 43.7,43.7 32.4,43.7 32.4,52.2 21,52.2 21,43.7 9.7,43.7 9.7,52.2 -1.7,52.2 
		-1.7,43.7 -13,43.7 -13,52.2 -24.3,52.2 -24.3,43.7 -35.7,43.7 -35.7,52.2 -47,52.2 -47,43.7 -61.2,43.7 -61.2,52.2 -66.9,52.2 
		-66.9,40.9 -75.4,40.9 -75.4,29.5 -66.9,29.5 -66.9,18.2 -75.4,18.2 -75.4,6.8 -66.9,6.8 	"/>
</g>
<g transform="translate(376.83101849999997, 93.3662185) ">
	<polygon class="st0" points="-66.9,-18.7 -61.2,-18.7 -61.2,-10.2 -47,-10.2 -47,-18.7 -35.7,-18.7 -35.7,-10.2 -24.3,-10.2 
		-24.3,-18.7 -13,-18.7 -13,-10.2 -1.7,-10.2 -1.7,-18.7 9.7,-18.7 9.7,-10.2 21,-10.2 21,-18.7 32.4,-18.7 32.4,-10.2 43.7,-10.2 
		43.7,-18.7 55,-18.7 55,-10.2 66.4,-10.2 66.4,-18.7 77.7,-18.7 77.7,-10.2 89,-10.2 89,-18.7 100.4,-18.7 100.4,-10.2 
		111.7,-10.2 111.7,-18.7 123.1,-18.7 123.1,-10.2 134.4,-10.2 134.4,-18.7 145.7,-18.7 145.7,-10.2 157.1,-10.2 157.1,-18.7 
		168.4,-18.7 168.4,-10.2 179.8,-10.2 179.8,-18.7 191.1,-18.7 191.1,-10.2 202.4,-10.2 202.4,-18.7 213.8,-18.7 213.8,-10.2 
		225.1,-10.2 225.1,-18.7 236.4,-18.7 236.4,-10.2 250.6,-10.2 250.6,-18.7 256.3,-18.7 256.3,-7.3 264.8,-7.3 264.8,4 256.3,4 
		256.3,15.3 264.8,15.3 264.8,26.7 256.3,26.7 256.3,38 250.6,38 250.6,29.5 236.4,29.5 236.4,38 225.1,38 225.1,29.5 213.8,29.5 
		213.8,38 202.4,38 202.4,29.5 191.1,29.5 191.1,38 179.8,38 179.8,29.5 168.4,29.5 168.4,38 157.1,38 157.1,29.5 145.7,29.5 
		145.7,38 134.4,38 134.4,29.5 123.1,29.5 123.1,38 111.7,38 111.7,29.5 100.4,29.5 100.4,38 89,38 89,29.5 77.7,29.5 77.7,38 
		66.4,38 66.4,29.5 55,29.5 55,38 43.7,38 43.7,29.5 32.4,29.5 32.4,38 21,38 21,29.5 9.7,29.5 9.7,38 -1.7,38 -1.7,29.5 -13,29.5 
		-13,38 -24.3,38 -24.3,29.5 -35.7,29.5 -35.7,38 -47,38 -47,29.5 -61.2,29.5 -61.2,38 -66.9,38 -66.9,26.7 -75.4,26.7 -75.4,15.3 
		-66.9,15.3 -66.9,4 -75.4,4 -75.4,-7.3 -66.9,-7.3 	"/>
</g>
<g transform="translate(22.5000185, 93.3662185) ">
	<polygon class="st0" points="4,-10.2 11.1,-10.2 11.1,-18.7 26.7,-18.7 26.7,-10.2 38,-10.2 38,-18.7 49.4,-18.7 49.4,-10.2 
		60.7,-10.2 60.7,-18.7 72,-18.7 72,-10.2 83.4,-10.2 83.4,-18.7 94.7,-18.7 94.7,-10.2 106.1,-10.2 106.1,-18.7 121.6,-18.7 
		121.6,-10.2 128.7,-10.2 128.7,-4.5 137.2,-4.5 137.2,9.7 128.7,9.7 128.7,21 137.2,21 137.2,32.4 128.7,32.4 128.7,43.7 
		137.2,43.7 137.2,55 128.7,55 128.7,66.4 137.2,66.4 137.2,77.7 128.7,77.7 128.7,89 137.2,89 137.2,100.4 128.7,100.4 
		128.7,111.7 137.2,111.7 137.2,123.1 128.7,123.1 128.7,134.4 137.2,134.4 137.2,145.7 128.7,145.7 128.7,157.1 137.2,157.1 
		137.2,168.4 128.7,168.4 128.7,179.8 137.2,179.8 137.2,191.1 128.7,191.1 128.7,202.4 137.2,202.4 137.2,213.8 128.7,213.8 
		128.7,225.1 137.2,225.1 137.2,236.4 128.7,236.4 128.7,247.8 137.2,247.8 137.2,259.1 128.7,259.1 128.7,270.5 137.2,270.5 
		137.2,281.8 128.7,281.8 128.7,293.1 137.2,293.1 137.2,307.3 128.7,307.3 128.7,313 121.6,313 121.6,321.5 106.1,321.5 106.1,313 
		94.7,313 94.7,321.5 83.4,321.5 83.4,313 72,313 72,321.5 60.7,321.5 60.7,313 49.4,313 49.4,321.5 38,321.5 38,313 26.7,313 
		26.7,321.5 11.1,321.5 11.1,313 4,313 4,307.3 -4.5,307.3 -4.5,293.1 4,293.1 4,281.8 -4.5,281.8 -4.5,270.5 4,270.5 4,259.1 
		-4.5,259.1 -4.5,247.8 4,247.8 4,236.4 -4.5,236.4 -4.5,225.1 4,225.1 4,213.8 -4.5,213.8 -4.5,202.4 4,202.4 4,191.1 -4.5,191.1 
		-4.5,179.8 4,179.8 4,168.4 -4.5,168.4 -4.5,157.1 4,157.1 4,145.7 -4.5,145.7 -4.5,134.4 4,134.4 4,123.1 -4.5,123.1 -4.5,111.7 
		4,111.7 4,100.4 -4.5,100.4 -4.5,89 4,89 4,77.7 -4.5,77.7 -4.5,66.4 4,66.4 4,55 -4.5,55 -4.5,43.7 4,43.7 4,32.4 -4.5,32.4 
		-4.5,21 4,21 4,9.7 -4.5,9.7 -4.5,-4.5 4,-4.5 	"/>
</g>
<g transform="translate(199.6655185, 93.3662185) ">
	<polygon class="st0" points="-31.4,-10.2 -24.3,-10.2 -24.3,-18.7 -8.8,-18.7 -8.8,-10.2 2.6,-10.2 2.6,-18.7 13.9,-18.7 
		13.9,-10.2 25.3,-10.2 25.3,-18.7 36.6,-18.7 36.6,-10.2 47.9,-10.2 47.9,-18.7 59.3,-18.7 59.3,-10.2 70.6,-10.2 70.6,-18.7 
		86.2,-18.7 86.2,-10.2 93.3,-10.2 93.3,-4.5 101.8,-4.5 101.8,9.7 93.3,9.7 93.3,21 101.8,21 101.8,32.4 93.3,32.4 93.3,43.7 
		101.8,43.7 101.8,55 93.3,55 93.3,66.4 101.8,66.4 101.8,77.7 93.3,77.7 93.3,89 101.8,89 101.8,100.4 93.3,100.4 93.3,111.7 
		101.8,111.7 101.8,123.1 93.3,123.1 93.3,134.4 101.8,134.4 101.8,145.7 93.3,145.7 93.3,157.1 101.8,157.1 101.8,168.4 
		93.3,168.4 93.3,179.8 101.8,179.8 101.8,191.1 93.3,191.1 93.3,202.4 101.8,202.4 101.8,213.8 93.3,213.8 93.3,225.1 101.8,225.1 
		101.8,236.4 93.3,236.4 93.3,247.8 101.8,247.8 101.8,259.1 93.3,259.1 93.3,270.5 101.8,270.5 101.8,281.8 93.3,281.8 93.3,293.1 
		101.8,293.1 101.8,307.3 93.3,307.3 93.3,313 86.2,313 86.2,321.5 70.6,321.5 70.6,313 59.3,313 59.3,321.5 47.9,321.5 47.9,313 
		36.6,313 36.6,321.5 25.3,321.5 25.3,313 13.9,313 13.9,321.5 2.6,321.5 2.6,313 -8.8,313 -8.8,321.5 -24.3,321.5 -24.3,313 
		-31.4,313 -31.4,307.3 -39.9,307.3 -39.9,293.1 -31.4,293.1 -31.4,281.8 -39.9,281.8 -39.9,270.5 -31.4,270.5 -31.4,259.1 
		-39.9,259.1 -39.9,247.8 -31.4,247.8 -31.4,236.4 -39.9,236.4 -39.9,225.1 -31.4,225.1 -31.4,213.8 -39.9,213.8 -39.9,202.4 
		-31.4,202.4 -31.4,191.1 -39.9,191.1 -39.9,179.8 -31.4,179.8 -31.4,168.4 -39.9,168.4 -39.9,157.1 -31.4,157.1 -31.4,145.7 
		-39.9,145.7 -39.9,134.4 -31.4,134.4 -31.4,123.1 -39.9,123.1 -39.9,111.7 -31.4,111.7 -31.4,100.4 -39.9,100.4 -39.9,89 -31.4,89 
		-31.4,77.7 -39.9,77.7 -39.9,66.4 -31.4,66.4 -31.4,55 -39.9,55 -39.9,43.7 -31.4,43.7 -31.4,32.4 -39.9,32.4 -39.9,21 -31.4,21 
		-31.4,9.7 -39.9,9.7 -39.9,-4.5 -31.4,-4.5 	"/>
</g>
<path d="M273.3,106.1h-14.6c0-1.7-1.4-3.1-3.3-3.1h-17.3c-1.8,0-3.3,1.4-3.3,3.1h-8.7c0-1.7-1.4-3.1-3.3-3.1h-17.3
	c-1.8,0-3.3,1.4-3.3,3.1h-14.5c-3.8,0-6.9,3-6.9,6.6v238.7c0,3.6,3.1,6.6,6.9,6.6h20.4c2.6,0,4.8-1.4,6-3.4c1.2,2,3.4,3.4,6,3.4
	h20.4c2.6,0,4.8-1.4,6-3.4c1.2,2,3.4,3.4,6,3.4h20.4c3.8,0,6.9-3,6.9-6.6V112.8C280.3,109.1,277.1,106.1,273.3,106.1z M213.5,351.5
	c0,2.7-2.3,4.9-5.1,4.9h-20.4c-2.8,0-5.1-2.2-5.1-4.9V112.8c0-2.7,2.3-4.9,5.1-4.9h14.5v188.2c0,1.7,1.4,3.1,3.3,3.1h7.8V351.5z
	 M246,351.5c0,2.7-2.3,4.9-5.1,4.9h-20.4c-2.8,0-5.1-2.2-5.1-4.9v-52.4h7.8c1.8,0,3.3-1.4,3.3-3.1V107.8h8.7V296
	c0,1.7,1.4,3.1,3.3,3.1h7.8L246,351.5L246,351.5z M278.5,351.5c0,2.7-2.3,4.9-5.1,4.9h-20.4c-2.8,0-5.1-2.2-5.1-4.9v-52.4h7.8
	c1.8,0,3.3-1.4,3.3-3.1V107.8h14.6c2.8,0,5.1,2.2,5.1,4.9L278.5,351.5L278.5,351.5z"/>
<path d="M230.6,366.7c-7.8,0-14.2,6.3-14.2,14.2c0,7.8,6.3,14.2,14.2,14.2s14.2-6.3,14.2-14.2C244.8,373.1,238.4,366.7,230.6,366.7z
	 M228,390c-0.7,1.1-2.5,1.1-3.4,0.1c-0.6-0.7-0.6-2.5-0.5-3.7c0.7-0.1,1.4-0.2,2.2-0.2c0.6,0,1.2,0.1,1.7,0.1
	C228.3,387.3,228.7,388.9,228,390z M229.1,380.7c-0.2,0.6-0.7,1.8-1,2.9c-0.2,0.8-0.2,1.6-0.1,2.2c-0.5-0.1-1.1-0.1-1.7-0.1
	c-0.7,0-1.5,0.1-2.2,0.2c0-0.2,0-0.4,0-0.5c0-1-0.5-2.6-0.7-3.4c-0.5-2.3,1.4-6.6,3.3-6.7C228.7,375.1,229.5,379.5,229.1,380.7z
	 M236.5,385.9c-0.8,1-2.6,1-3.4-0.1c-0.7-1-0.3-2.5-0.1-3.4c0.6-0.1,1.2-0.1,1.8-0.1c0.7,0,1.5,0.1,2.2,0.2
	C237.1,383.6,237.1,385.2,236.5,385.9z M237.7,377.7c-0.2,0.8-0.7,2.5-0.7,3.4c0,0.1,0,0.4,0,0.7c-0.7-0.1-1.4-0.2-2.2-0.2
	c-0.6,0-1.1,0-1.7,0.1c0.1-0.5,0.1-1.4-0.1-2.3c-0.3-1.1-0.8-2.3-1-2.9c-0.4-1.2,0.4-5.6,2.3-5.5C236.3,371,238.2,375.4,237.7,377.7
	z"/>
<circle class="st1" cx="348" cy="103" r="2.8"/>
<g>
	<path d="M37.9,50.6l-1.8-6.2h-0.1c0.1,1.1,0.1,1.9,0.1,2.4v3.7h-2.1V42h3.1l1.8,6.1h0l1.8-6.1h3.1v8.6h-2.1v-3.8c0-0.2,0-0.4,0-0.7
		s0-0.8,0.1-1.8h-0.1l-1.7,6.2H37.9z"/>
	<path d="M51,50.6L50.6,49h-2.8l-0.4,1.6h-2.5l2.8-8.6h3.1l2.8,8.6H51z M50.1,47.1l-0.4-1.4c-0.1-0.3-0.2-0.7-0.3-1.2
		s-0.2-0.9-0.2-1.1c0,0.2-0.1,0.5-0.2,1s-0.3,1.4-0.7,2.7H50.1z"/>
	<path d="M59.7,50.6L59.3,49h-2.8l-0.4,1.6h-2.5l2.8-8.6h3.1l2.8,8.6H59.7z M58.8,47.1l-0.4-1.4c-0.1-0.3-0.2-0.7-0.3-1.2
		s-0.2-0.9-0.2-1.1c0,0.2-0.1,0.5-0.2,1s-0.3,1.4-0.7,2.7H58.8z"/>
	<path d="M65.5,47.5v3.1h-2.3V42H66c2.3,0,3.5,0.8,3.5,2.5c0,1-0.5,1.8-1.5,2.3l2.5,3.7h-2.6l-1.8-3.1H65.5z M65.5,45.7h0.4
		c0.8,0,1.2-0.4,1.2-1.1c0-0.6-0.4-0.9-1.2-0.9h-0.5V45.7z"/>
	<path d="M75.1,50.6h-2.3v-6.7h-2.1V42h6.5v1.9h-2.1V50.6z"/>
	<path d="M83.5,50.6h-5.1V42h5.1v1.9h-2.8v1.3h2.6v1.9h-2.6v1.6h2.8V50.6z"/>
	<path d="M93.1,50.6h-3l-3.1-6h-0.1c0.1,0.9,0.1,1.7,0.1,2.2v3.9H85V42h3l3.1,6h0c-0.1-0.9-0.1-1.6-0.1-2.1V42h2.1V50.6z"/>
	<path d="M104.3,44.7c0,1-0.3,1.7-0.8,2.2s-1.4,0.8-2.4,0.8h-0.7v2.8h-2.3V42h3c1.1,0,1.9,0.2,2.4,0.7S104.3,43.9,104.3,44.7z
		 M100.4,45.9h0.4c0.3,0,0.6-0.1,0.8-0.3s0.3-0.5,0.3-0.8c0-0.6-0.3-0.9-1-0.9h-0.6V45.9z"/>
	<path d="M111,50.6l-0.4-1.6h-2.8l-0.4,1.6h-2.5l2.8-8.6h3.1l2.8,8.6H111z M110.1,47.1l-0.4-1.4c-0.1-0.3-0.2-0.7-0.3-1.2
		s-0.2-0.9-0.2-1.1c0,0.2-0.1,0.5-0.2,1s-0.3,1.4-0.7,2.7H110.1z"/>
	<path d="M119.7,50.6l-0.4-1.6h-2.8l-0.4,1.6h-2.5l2.8-8.6h3.1l2.8,8.6H119.7z M118.8,47.1l-0.4-1.4c-0.1-0.3-0.2-0.7-0.3-1.2
		s-0.2-0.9-0.2-1.1c0,0.2-0.1,0.5-0.2,1s-0.3,1.4-0.7,2.7H118.8z"/>
	<path d="M130.4,42v5.2c0,1.1-0.3,2-1,2.6s-1.5,0.9-2.7,0.9c-1.2,0-2.1-0.3-2.7-0.9s-0.9-1.5-0.9-2.6V42h2.3v5c0,0.6,0.1,1,0.3,1.3
		s0.6,0.4,1,0.4c0.5,0,0.8-0.1,1-0.4s0.3-0.7,0.3-1.3v-5H130.4z"/>
	<path d="M141.5,50.6h-2.7l-0.8-3.7c0-0.2-0.1-0.5-0.2-0.9s-0.1-0.9-0.2-1.2c0,0.3-0.1,0.6-0.2,0.9s-0.1,0.7-0.2,1s-0.4,1.6-0.9,3.8
		h-2.7l-2.1-8.6h2.2l0.9,4.3c0.2,0.9,0.4,1.7,0.4,2.3c0.1-0.4,0.1-0.9,0.3-1.6s0.3-1.2,0.4-1.7l0.8-3.2h2.1l0.7,3.2
		c0.1,0.5,0.3,1.1,0.4,1.8s0.2,1.2,0.3,1.5c0.1-0.4,0.2-1.2,0.4-2.3l0.9-4.3h2.2L141.5,50.6z"/>
</g>
<g>
	<path d="M212.6,46.4c0,1.5-0.3,2.6-0.8,3.3s-1.3,1.1-2.3,1.1c-1,0-1.8-0.4-2.3-1.1s-0.8-1.8-0.8-3.3c0-1.5,0.3-2.6,0.8-3.4
		s1.3-1.1,2.3-1.1c1,0,1.8,0.4,2.3,1.1S212.6,44.9,212.6,46.4z M208.7,46.4c0,1,0.1,1.6,0.2,2s0.3,0.5,0.6,0.5
		c0.3,0,0.5-0.2,0.6-0.6s0.2-1,0.2-2c0-0.9-0.1-1.6-0.2-2s-0.3-0.6-0.6-0.6s-0.5,0.2-0.6,0.6S208.7,45.4,208.7,46.4z"/>
	<path d="M219.6,46c0,1.7-0.4,2.9-1.1,3.6s-1.9,1.1-3.5,1.1c-0.5,0-0.9,0-1.2-0.1v-1.8c0.3,0.1,0.7,0.1,1,0.1c0.8,0,1.5-0.2,1.9-0.5
		s0.7-0.9,0.7-1.6h-0.1c-0.2,0.3-0.3,0.5-0.5,0.6s-0.3,0.2-0.5,0.3s-0.5,0.1-0.8,0.1c-0.7,0-1.3-0.2-1.7-0.7s-0.6-1.2-0.6-2.1
		c0-0.9,0.3-1.7,0.8-2.2s1.3-0.8,2.2-0.8c1,0,1.9,0.3,2.4,1S219.6,44.7,219.6,46z M216.4,43.8c-0.3,0-0.5,0.1-0.6,0.3
		s-0.2,0.5-0.2,0.9c0,0.3,0.1,0.6,0.2,0.8s0.3,0.3,0.6,0.3c0.3,0,0.5-0.1,0.7-0.3s0.3-0.4,0.3-0.7c0-0.3-0.1-0.6-0.3-0.9
		S216.7,43.8,216.4,43.8z"/>
	<path d="M225.6,50.6h-2.3v-4.5c0-0.6,0-1.1,0-1.5c-0.1,0.2-0.3,0.4-0.5,0.6l-1,0.8l-1.2-1.5l2.9-2.4h2.1V50.6z"/>
	<path d="M233.6,50.6h-6.2v-1.5l2.1-2.1c0.6-0.6,1-1.1,1.2-1.3s0.3-0.4,0.4-0.6s0.1-0.3,0.1-0.5c0-0.2-0.1-0.4-0.2-0.5
		s-0.3-0.2-0.6-0.2c-0.3,0-0.5,0.1-0.8,0.2s-0.6,0.4-0.9,0.7l-1.3-1.5c0.4-0.4,0.8-0.7,1.1-0.8s0.6-0.3,1-0.4s0.8-0.1,1.2-0.1
		c0.6,0,1,0.1,1.5,0.3s0.8,0.5,1,0.8s0.4,0.8,0.4,1.2c0,0.3,0,0.6-0.1,0.9s-0.2,0.6-0.4,0.8s-0.4,0.6-0.7,0.9s-0.9,0.9-1.9,1.7v0.1
		h3.2V50.6z"/>
	<path d="M240.9,49H240v1.7h-2.3V49h-3.4v-1.7l3.6-5.2h2.1v5.2h0.9V49z M237.7,47.2v-1c0-0.2,0-0.4,0-0.8s0-0.5,0-0.5h-0.1
		c-0.1,0.3-0.3,0.6-0.5,0.8l-0.9,1.4H237.7z"/>
	<path d="M244.7,41.9c0.9,0,1.6,0.2,2.1,0.5s0.8,0.9,0.8,1.5c0,0.5-0.1,0.9-0.4,1.2s-0.6,0.6-1.1,0.9c0.6,0.4,1.1,0.7,1.3,1.1
		s0.4,0.7,0.4,1.2c0,0.8-0.3,1.4-0.8,1.8s-1.3,0.6-2.3,0.6c-1,0-1.8-0.2-2.3-0.6s-0.8-1-0.8-1.8c0-0.5,0.1-0.9,0.4-1.3
		s0.6-0.7,1.2-1c-0.5-0.3-0.8-0.6-1-1s-0.3-0.7-0.3-1.2c0-0.7,0.3-1.2,0.8-1.5S243.8,41.9,244.7,41.9z M243.7,48.3
		c0,0.2,0.1,0.4,0.3,0.6s0.4,0.2,0.7,0.2c0.7,0,1-0.3,1-0.8c0-0.2-0.1-0.4-0.2-0.6s-0.4-0.4-0.8-0.6c-0.3,0.2-0.6,0.4-0.7,0.6
		S243.7,48.1,243.7,48.3z M244.7,43.6c-0.2,0-0.4,0.1-0.5,0.2s-0.2,0.3-0.2,0.4c0,0.3,0.2,0.6,0.7,0.9c0.3-0.2,0.5-0.3,0.6-0.4
		s0.2-0.3,0.2-0.5c0-0.2-0.1-0.3-0.2-0.5S244.8,43.6,244.7,43.6z"/>
	<path d="M254.8,46c0,1.7-0.4,2.9-1.1,3.6s-1.9,1.1-3.5,1.1c-0.5,0-0.9,0-1.2-0.1v-1.8c0.3,0.1,0.7,0.1,1,0.1c0.8,0,1.5-0.2,1.9-0.5
		s0.7-0.9,0.7-1.6h-0.1c-0.2,0.3-0.3,0.5-0.5,0.6s-0.3,0.2-0.5,0.3s-0.5,0.1-0.8,0.1c-0.7,0-1.3-0.2-1.7-0.7s-0.6-1.2-0.6-2.1
		c0-0.9,0.3-1.7,0.8-2.2s1.3-0.8,2.2-0.8c1,0,1.9,0.3,2.4,1S254.8,44.7,254.8,46z M251.6,43.8c-0.3,0-0.5,0.1-0.6,0.3
		s-0.2,0.5-0.2,0.9c0,0.3,0.1,0.6,0.2,0.8s0.3,0.3,0.6,0.3c0.3,0,0.5-0.1,0.7-0.3s0.3-0.4,0.3-0.7c0-0.3-0.1-0.6-0.3-0.9
		S251.8,43.8,251.6,43.8z"/>
</g>
</svg>
