<?xml version="1.0" encoding="utf-8"?>
<!-- Generator: Adobe Illustrator 21.1.0, SVG Export Plug-In . SVG Version: 6.00 Build 0)  -->
<svg version="1.1" id="Layer_1" xmlns="http://www.w3.org/2000/svg" xmlns:xlink="http://www.w3.org/1999/xlink" x="0px" y="0px"
	 viewBox="0 0 170.1 368.5" style="enable-background:new 0 0 170.1 368.5;" xml:space="preserve">
<style type="text/css">
	.st0{fill:none;stroke:#FF0000;stroke-width:2.834646e-02;}
</style>
<g>
	<g>
		<path d="M85,303.7c-7.8,0-14.2,6.3-14.2,14.2c0,7.8,6.3,14.2,14.2,14.2s14.2-6.3,14.2-14.2C99.2,310.1,92.8,303.7,85,303.7z
			 M82.4,327c-0.7,1.1-2.5,1.1-3.4,0.1c-0.6-0.7-0.6-2.5-0.5-3.7c0.7-0.1,1.4-0.2,2.2-0.2c0.6,0,1.2,0.1,1.7,0.1
			C82.7,324.3,83.1,325.9,82.4,327z M83.5,317.7c-0.2,0.6-0.7,1.8-1,2.9c-0.2,0.8-0.2,1.6-0.1,2.2c-0.5-0.1-1.1-0.1-1.7-0.1
			c-0.7,0-1.5,0.1-2.2,0.2c0-0.2,0-0.4,0-0.5c0-1-0.5-2.6-0.7-3.4c-0.5-2.3,1.4-6.6,3.3-6.7C83.1,312.1,83.9,316.5,83.5,317.7z
			 M90.9,322.9c-0.8,1-2.6,1-3.4-0.1c-0.7-1-0.3-2.5-0.1-3.4c0.6-0.1,1.2-0.1,1.8-0.1c0.7,0,1.5,0.1,2.2,0.2
			C91.5,320.6,91.5,322.2,90.9,322.9z M92.1,314.7c-0.2,0.8-0.7,2.5-0.7,3.4c0,0.1,0,0.4,0,0.7c-0.7-0.1-1.4-0.2-2.2-0.2
			c-0.6,0-1.1,0-1.7,0.1c0.1-0.5,0.1-1.4-0.1-2.3c-0.3-1.1-0.8-2.3-1-2.9c-0.4-1.2,0.4-5.6,2.3-5.5C90.7,308,92.6,312.4,92.1,314.7z
			"/>
		<path d="M126.1,39.4h-13.7V39c0-1.5-1.2-2.6-2.6-2.6H91.4c-1.5,0-2.6,1.2-2.6,2.6v0.4h-7.5V39c0-1.5-1.2-2.6-2.6-2.6H60.2
			c-1.5,0-2.6,1.2-2.6,2.6v0.4H43.9c-3.4,0-6.2,2.8-6.2,6.2v243.8c0,3.4,2.8,6.2,6.2,6.2h19.8c2.5,0,4.7-1.5,5.7-3.7
			c0.9,2.2,3.1,3.7,5.7,3.7H95c2.5,0,4.7-1.5,5.7-3.7c0.9,2.2,3.1,3.7,5.7,3.7h19.8c3.4,0,6.2-2.8,6.2-6.2V45.6
			C132.3,42.2,129.5,39.4,126.1,39.4z M63.8,294.5H43.9c-2.9,0-5.2-2.3-5.2-5.2V45.6c0-2.9,2.3-5.2,5.2-5.2h13.7v192.8
			c0,1.5,1.2,2.6,2.6,2.6h8.7v53.5C68.9,292.2,66.6,294.5,63.8,294.5z M95,294.5H75.1c-2.9,0-5.2-2.3-5.2-5.2v-53.5h8.7
			c1.5,0,2.6-1.2,2.6-2.6V40.4h7.5v192.8c0,1.5,1.2,2.6,2.6,2.6h8.7v53.5C100.1,292.2,97.8,294.5,95,294.5z M131.3,289.4
			c0,2.9-2.3,5.2-5.2,5.2h-19.8c-2.9,0-5.2-2.3-5.2-5.2v-53.5h8.7c1.5,0,2.6-1.2,2.6-2.6V40.4h13.7c2.9,0,5.2,2.3,5.2,5.2V289.4z"/>
	</g>
	<rect x="14.2" y="14.2" class="st0" width="141.7" height="340.2"/>
</g>
</svg>
