<?xml version="1.0" encoding="utf-8"?>
<!-- Generator: Adobe Illustrator 21.1.0, SVG Export Plug-In . SVG Version: 6.00 Build 0)  -->
<svg version="1.1" id="Layer_1" xmlns="http://www.w3.org/2000/svg" xmlns:xlink="http://www.w3.org/1999/xlink" x="0px" y="0px"
	 viewBox="0 0 1700.8 425.2" style="enable-background:new 0 0 1700.8 425.2;" xml:space="preserve">
<g>
	<path d="M-1.4-1.4v428h1703.6v-428H-1.4z M1699.4,26.9h-25.5V1.4h25.5V26.9z M1617.2,26.9V1.4h53.9v25.5H1617.2z M1617.2,83.6V58.1
		h53.9v25.5H1617.2z M1617.2,140.3v-25.5h53.9v25.5H1617.2z M1617.2,197v-25.5h53.9V197H1617.2z M1617.2,253.7v-25.5h53.9v25.5
		H1617.2z M1617.2,310.4v-25.5h53.9v25.5H1617.2z M1617.2,367.1v-25.5h53.9v25.5H1617.2z M1588.8,395.4v-25.5h53.9v25.5H1588.8z
		 M1532.1,395.4v-25.5h53.9v25.5H1532.1z M1475.4,395.4v-25.5h53.9v25.5H1475.4z M1418.7,395.4v-25.5h53.9v25.5H1418.7z M1362,395.4
		v-25.5h53.9v25.5H1362z M1305.4,395.4v-25.5h53.9v25.5H1305.4z M1248.7,395.4v-25.5h53.9v25.5H1248.7z M1192,395.4v-25.5h53.9v25.5
		H1192z M1135.3,395.4v-25.5h53.9v25.5H1135.3z M1078.6,395.4v-25.5h53.9v25.5H1078.6z M1021.9,395.4v-25.5h53.9v25.5H1021.9z
		 M965.2,395.4v-25.5h53.9v25.5H965.2z M908.5,395.4v-25.5h53.9v25.5H908.5z M851.8,395.4v-25.5h53.9v25.5H851.8z M795.1,395.4
		v-25.5H849v25.5H795.1z M738.4,395.4v-25.5h53.9v25.5H738.4z M681.7,395.4v-25.5h53.9v25.5H681.7z M625,395.4v-25.5h53.9v25.5H625z
		 M568.3,395.4v-25.5h53.9v25.5H568.3z M511.7,395.4v-25.5h53.9v25.5H511.7z M455,395.4v-25.5h53.9v25.5H455z M398.3,395.4v-25.5
		h53.9v25.5H398.3z M341.6,395.4v-25.5h53.9v25.5H341.6z M284.9,395.4v-25.5h53.9v25.5H284.9z M228.2,395.4v-25.5H282v25.5H228.2z
		 M171.5,395.4v-25.5h53.9v25.5H171.5z M114.8,395.4v-25.5h53.9v25.5H114.8z M58.1,395.4v-25.5H112v25.5H58.1z M83.6,341.6v25.5
		H29.8v-25.5H83.6z M83.6,284.9v25.5H29.8v-25.5H83.6z M83.6,228.2v25.5H29.8v-25.5H83.6z M83.6,171.5V197H29.8v-25.5H83.6z
		 M83.6,114.8v25.5H29.8v-25.5H83.6z M83.6,58.1v25.5H29.8V58.1H83.6z M112,29.8v25.5H58.1V29.8H112z M168.7,29.8v25.5h-53.9V29.8
		H168.7z M225.4,29.8v25.5h-53.9V29.8H225.4z M282,29.8v25.5h-53.9V29.8H282z M338.7,29.8v25.5h-53.9V29.8H338.7z M395.4,29.8v25.5
		h-53.9V29.8H395.4z M452.1,29.8v25.5h-53.9V29.8H452.1z M508.8,29.8v25.5H455V29.8H508.8z M565.5,29.8v25.5h-53.9V29.8H565.5z
		 M622.2,29.8v25.5h-53.9V29.8H622.2z M678.9,29.8v25.5H625V29.8H678.9z M735.6,29.8v25.5h-53.9V29.8H735.6z M792.3,29.8v25.5h-53.9
		V29.8H792.3z M849,29.8v25.5h-53.9V29.8H849z M905.7,29.8v25.5h-53.9V29.8H905.7z M962.4,29.8v25.5h-53.9V29.8H962.4z M1019.1,29.8
		v25.5h-53.9V29.8H1019.1z M1075.7,29.8v25.5h-53.9V29.8H1075.7z M1132.4,29.8v25.5h-53.9V29.8H1132.4z M1189.1,29.8v25.5h-53.9
		V29.8H1189.1z M1245.8,29.8v25.5H1192V29.8H1245.8z M1302.5,29.8v25.5h-53.9V29.8H1302.5z M1359.2,29.8v25.5h-53.9V29.8H1359.2z
		 M1415.9,29.8v25.5H1362V29.8H1415.9z M1472.6,29.8v25.5h-53.9V29.8H1472.6z M1529.3,29.8v25.5h-53.9V29.8H1529.3z M1586,29.8v25.5
		h-53.9V29.8H1586z M1560.5,83.6V58.1h53.9v25.5H1560.5z M1560.5,140.3v-25.5h53.9v25.5H1560.5z M1560.5,197v-25.5h53.9V197H1560.5z
		 M1560.5,253.7v-25.5h53.9v25.5H1560.5z M1560.5,310.4v-25.5h53.9v25.5H1560.5z M1560.5,367.1v-25.5h53.9v25.5H1560.5z
		 M1503.8,367.1v-25.5h53.9v25.5H1503.8z M1447.1,367.1v-25.5h53.9v25.5H1447.1z M1390.4,367.1v-25.5h53.9v25.5H1390.4z
		 M1333.7,367.1v-25.5h53.9v25.5H1333.7z M1277,367.1v-25.5h53.9v25.5H1277z M1220.3,367.1v-25.5h53.9v25.5H1220.3z M1163.6,367.1
		v-25.5h53.9v25.5H1163.6z M1106.9,367.1v-25.5h53.9v25.5H1106.9z M1050.2,367.1v-25.5h53.9v25.5H1050.2z M993.5,367.1v-25.5h53.9
		v25.5H993.5z M936.9,367.1v-25.5h53.9v25.5H936.9z M880.2,367.1v-25.5H934v25.5H880.2z M823.5,367.1v-25.5h53.9v25.5H823.5z
		 M766.8,367.1v-25.5h53.9v25.5H766.8z M710.1,367.1v-25.5h53.9v25.5H710.1z M653.4,367.1v-25.5h53.9v25.5H653.4z M596.7,367.1
		v-25.5h53.9v25.5H596.7z M540,367.1v-25.5h53.9v25.5H540z M483.3,367.1v-25.5h53.9v25.5H483.3z M426.6,367.1v-25.5h53.9v25.5H426.6
		z M369.9,367.1v-25.5h53.9v25.5H369.9z M313.2,367.1v-25.5h53.9v25.5H313.2z M256.5,367.1v-25.5h53.9v25.5H256.5z M199.8,367.1
		v-25.5h53.9v25.5H199.8z M143.2,367.1v-25.5H197v25.5H143.2z M86.5,367.1v-25.5h53.9v25.5H86.5z M140.3,284.9v25.5H86.5v-25.5
		H140.3z M140.3,228.2v25.5H86.5v-25.5H140.3z M140.3,171.5V197H86.5v-25.5H140.3z M140.3,114.8v25.5H86.5v-25.5H140.3z M140.3,58.1
		v25.5H86.5V58.1H140.3z M197,58.1v25.5h-53.9V58.1H197z M253.7,58.1v25.5h-53.9V58.1H253.7z M310.4,58.1v25.5h-53.9V58.1H310.4z
		 M367.1,58.1v25.5h-53.9V58.1H367.1z M423.8,58.1v25.5h-53.9V58.1H423.8z M480.5,58.1v25.5h-53.9V58.1H480.5z M537.2,58.1v25.5
		h-53.9V58.1H537.2z M593.9,58.1v25.5H540V58.1H593.9z M650.6,58.1v25.5h-53.9V58.1H650.6z M707.2,58.1v25.5h-53.9V58.1H707.2z
		 M763.9,58.1v25.5h-53.9V58.1H763.9z M820.6,58.1v25.5h-53.9V58.1H820.6z M877.3,58.1v25.5h-53.9V58.1H877.3z M934,58.1v25.5h-53.9
		V58.1H934z M990.7,58.1v25.5h-53.9V58.1H990.7z M1047.4,58.1v25.5h-53.9V58.1H1047.4z M1104.1,58.1v25.5h-53.9V58.1H1104.1z
		 M1160.8,58.1v25.5h-53.9V58.1H1160.8z M1217.5,58.1v25.5h-53.9V58.1H1217.5z M1274.2,58.1v25.5h-53.9V58.1H1274.2z M1330.9,58.1
		v25.5H1277V58.1H1330.9z M1387.6,58.1v25.5h-53.9V58.1H1387.6z M1444.3,58.1v25.5h-53.9V58.1H1444.3z M1500.9,58.1v25.5h-53.9V58.1
		H1500.9z M1557.6,58.1v25.5h-53.9V58.1H1557.6z M1503.8,140.3v-25.5h53.9v25.5H1503.8z M1503.8,197v-25.5h53.9V197H1503.8z
		 M1503.8,253.7v-25.5h53.9v25.5H1503.8z M1503.8,310.4v-25.5h53.9v25.5H1503.8z M1475.4,338.7v-25.5h53.9v25.5H1475.4z
		 M1418.7,338.7v-25.5h53.9v25.5H1418.7z M1362,338.7v-25.5h53.9v25.5H1362z M1305.4,338.7v-25.5h53.9v25.5H1305.4z M1248.7,338.7
		v-25.5h53.9v25.5H1248.7z M1192,338.7v-25.5h53.9v25.5H1192z M1135.3,338.7v-25.5h53.9v25.5H1135.3z M1078.6,338.7v-25.5h53.9v25.5
		H1078.6z M1021.9,338.7v-25.5h53.9v25.5H1021.9z M965.2,338.7v-25.5h53.9v25.5H965.2z M908.5,338.7v-25.5h53.9v25.5H908.5z
		 M851.8,338.7v-25.5h53.9v25.5H851.8z M795.1,338.7v-25.5H849v25.5H795.1z M738.4,338.7v-25.5h53.9v25.5H738.4z M681.7,338.7v-25.5
		h53.9v25.5H681.7z M625,338.7v-25.5h53.9v25.5H625z M568.3,338.7v-25.5h53.9v25.5H568.3z M511.7,338.7v-25.5h53.9v25.5H511.7z
		 M455,338.7v-25.5h53.9v25.5H455z M398.3,338.7v-25.5h53.9v25.5H398.3z M341.6,338.7v-25.5h53.9v25.5H341.6z M284.9,338.7v-25.5
		h53.9v25.5H284.9z M228.2,338.7v-25.5H282v25.5H228.2z M171.5,338.7v-25.5h53.9v25.5H171.5z M197,284.9v25.5h-53.9v-25.5H197z
		 M197,228.2v25.5h-53.9v-25.5H197z M197,171.5V197h-53.9v-25.5H197z M197,114.8v25.5h-53.9v-25.5H197z M225.4,86.5V112h-53.9V86.5
		H225.4z M282,86.5V112h-53.9V86.5H282z M338.7,86.5V112h-53.9V86.5H338.7z M395.4,86.5V112h-53.9V86.5H395.4z M452.1,86.5V112
		h-53.9V86.5H452.1z M508.8,86.5V112H455V86.5H508.8z M565.5,86.5V112h-53.9V86.5H565.5z M622.2,86.5V112h-53.9V86.5H622.2z
		 M678.9,86.5V112H625V86.5H678.9z M735.6,86.5V112h-53.9V86.5H735.6z M792.3,86.5V112h-53.9V86.5H792.3z M849,86.5V112h-53.9V86.5
		H849z M905.7,86.5V112h-53.9V86.5H905.7z M962.4,86.5V112h-53.9V86.5H962.4z M1019.1,86.5V112h-53.9V86.5H1019.1z M1075.7,86.5V112
		h-53.9V86.5H1075.7z M1132.4,86.5V112h-53.9V86.5H1132.4z M1189.1,86.5V112h-53.9V86.5H1189.1z M1245.8,86.5V112H1192V86.5H1245.8z
		 M1302.5,86.5V112h-53.9V86.5H1302.5z M1359.2,86.5V112h-53.9V86.5H1359.2z M1415.9,86.5V112H1362V86.5H1415.9z M1472.6,86.5V112
		h-53.9V86.5H1472.6z M1447.1,140.3v-25.5h53.9v25.5H1447.1z M1447.1,197v-25.5h53.9V197H1447.1z M1447.1,253.7v-25.5h53.9v25.5
		H1447.1z M1447.1,310.4v-25.5h53.9v25.5H1447.1z M1390.4,310.4v-25.5h53.9v25.5H1390.4z M1333.7,310.4v-25.5h53.9v25.5H1333.7z
		 M1277,310.4v-25.5h53.9v25.5H1277z M1220.3,310.4v-25.5h53.9v25.5H1220.3z M1163.6,310.4v-25.5h53.9v25.5H1163.6z M1106.9,310.4
		v-25.5h53.9v25.5H1106.9z M1050.2,310.4v-25.5h53.9v25.5H1050.2z M993.5,310.4v-25.5h53.9v25.5H993.5z M936.9,310.4v-25.5h53.9
		v25.5H936.9z M880.2,310.4v-25.5H934v25.5H880.2z M823.5,310.4v-25.5h53.9v25.5H823.5z M766.8,310.4v-25.5h53.9v25.5H766.8z
		 M710.1,310.4v-25.5h53.9v25.5H710.1z M653.4,310.4v-25.5h53.9v25.5H653.4z M596.7,310.4v-25.5h53.9v25.5H596.7z M540,310.4v-25.5
		h53.9v25.5H540z M483.3,310.4v-25.5h53.9v25.5H483.3z M426.6,310.4v-25.5h53.9v25.5H426.6z M369.9,310.4v-25.5h53.9v25.5H369.9z
		 M313.2,310.4v-25.5h53.9v25.5H313.2z M256.5,310.4v-25.5h53.9v25.5H256.5z M199.8,310.4v-25.5h53.9v25.5H199.8z M253.7,228.2v25.5
		h-53.9v-25.5H253.7z M253.7,171.5V197h-53.9v-25.5H253.7z M253.7,114.8v25.5h-53.9v-25.5H253.7z M310.4,114.8v25.5h-53.9v-25.5
		H310.4z M367.1,114.8v25.5h-53.9v-25.5H367.1z M423.8,114.8v25.5h-53.9v-25.5H423.8z M480.5,114.8v25.5h-53.9v-25.5H480.5z
		 M537.2,114.8v25.5h-53.9v-25.5H537.2z M593.9,114.8v25.5H540v-25.5H593.9z M650.6,114.8v25.5h-53.9v-25.5H650.6z M707.2,114.8
		v25.5h-53.9v-25.5H707.2z M763.9,114.8v25.5h-53.9v-25.5H763.9z M820.6,114.8v25.5h-53.9v-25.5H820.6z M877.3,114.8v25.5h-53.9
		v-25.5H877.3z M934,114.8v25.5h-53.9v-25.5H934z M990.7,114.8v25.5h-53.9v-25.5H990.7z M1047.4,114.8v25.5h-53.9v-25.5H1047.4z
		 M1104.1,114.8v25.5h-53.9v-25.5H1104.1z M1160.8,114.8v25.5h-53.9v-25.5H1160.8z M1217.5,114.8v25.5h-53.9v-25.5H1217.5z
		 M1274.2,114.8v25.5h-53.9v-25.5H1274.2z M1330.9,114.8v25.5H1277v-25.5H1330.9z M1387.6,114.8v25.5h-53.9v-25.5H1387.6z
		 M1444.3,114.8v25.5h-53.9v-25.5H1444.3z M1390.4,197v-25.5h53.9V197H1390.4z M1390.4,253.7v-25.5h53.9v25.5H1390.4z M1362,282
		v-25.5h53.9V282H1362z M1305.4,282v-25.5h53.9V282H1305.4z M1248.7,282v-25.5h53.9V282H1248.7z M1192,282v-25.5h53.9V282H1192z
		 M1135.3,282v-25.5h53.9V282H1135.3z M1078.6,282v-25.5h53.9V282H1078.6z M1021.9,282v-25.5h53.9V282H1021.9z M965.2,282v-25.5
		h53.9V282H965.2z M908.5,282v-25.5h53.9V282H908.5z M851.8,282v-25.5h53.9V282H851.8z M795.1,282v-25.5H849V282H795.1z M738.4,282
		v-25.5h53.9V282H738.4z M681.7,282v-25.5h53.9V282H681.7z M625,282v-25.5h53.9V282H625z M568.3,282v-25.5h53.9V282H568.3z
		 M511.7,282v-25.5h53.9V282H511.7z M455,282v-25.5h53.9V282H455z M398.3,282v-25.5h53.9V282H398.3z M341.6,282v-25.5h53.9V282
		H341.6z M284.9,282v-25.5h53.9V282H284.9z M310.4,228.2v25.5h-53.9v-25.5H310.4z M310.4,171.5V197h-53.9v-25.5H310.4z M338.7,143.2
		v25.5h-53.9v-25.5H338.7z M395.4,143.2v25.5h-53.9v-25.5H395.4z M452.1,143.2v25.5h-53.9v-25.5H452.1z M508.8,143.2v25.5H455v-25.5
		H508.8z M565.5,143.2v25.5h-53.9v-25.5H565.5z M622.2,143.2v25.5h-53.9v-25.5H622.2z M678.9,143.2v25.5H625v-25.5H678.9z
		 M735.6,143.2v25.5h-53.9v-25.5H735.6z M792.3,143.2v25.5h-53.9v-25.5H792.3z M849,143.2v25.5h-53.9v-25.5H849z M905.7,143.2v25.5
		h-53.9v-25.5H905.7z M962.4,143.2v25.5h-53.9v-25.5H962.4z M1019.1,143.2v25.5h-53.9v-25.5H1019.1z M1075.7,143.2v25.5h-53.9v-25.5
		H1075.7z M1132.4,143.2v25.5h-53.9v-25.5H1132.4z M1189.1,143.2v25.5h-53.9v-25.5H1189.1z M1245.8,143.2v25.5H1192v-25.5H1245.8z
		 M1302.5,143.2v25.5h-53.9v-25.5H1302.5z M1359.2,143.2v25.5h-53.9v-25.5H1359.2z M1333.7,197v-25.5h53.9V197H1333.7z
		 M1333.7,253.7v-25.5h53.9v25.5H1333.7z M1277,253.7v-25.5h53.9v25.5H1277z M1220.3,253.7v-25.5h53.9v25.5H1220.3z M1163.6,253.7
		v-25.5h53.9v25.5H1163.6z M1106.9,253.7v-25.5h53.9v25.5H1106.9z M1050.2,253.7v-25.5h53.9v25.5H1050.2z M993.5,253.7v-25.5h53.9
		v25.5H993.5z M936.9,253.7v-25.5h53.9v25.5H936.9z M880.2,253.7v-25.5H934v25.5H880.2z M823.5,253.7v-25.5h53.9v25.5H823.5z
		 M766.8,253.7v-25.5h53.9v25.5H766.8z M710.1,253.7v-25.5h53.9v25.5H710.1z M653.4,253.7v-25.5h53.9v25.5H653.4z M596.7,253.7
		v-25.5h53.9v25.5H596.7z M540,253.7v-25.5h53.9v25.5H540z M483.3,253.7v-25.5h53.9v25.5H483.3z M426.6,253.7v-25.5h53.9v25.5H426.6
		z M369.9,253.7v-25.5h53.9v25.5H369.9z M313.2,253.7v-25.5h53.9v25.5H313.2z M367.1,171.5V197h-53.9v-25.5H367.1z M423.8,171.5V197
		h-53.9v-25.5H423.8z M480.5,171.5V197h-53.9v-25.5H480.5z M537.2,171.5V197h-53.9v-25.5H537.2z M593.9,171.5V197H540v-25.5H593.9z
		 M650.6,171.5V197h-53.9v-25.5H650.6z M707.2,171.5V197h-53.9v-25.5H707.2z M763.9,171.5V197h-53.9v-25.5H763.9z M820.6,171.5V197
		h-53.9v-25.5H820.6z M877.3,171.5V197h-53.9v-25.5H877.3z M934,171.5V197h-53.9v-25.5H934z M990.7,171.5V197h-53.9v-25.5H990.7z
		 M1047.4,171.5V197h-53.9v-25.5H1047.4z M1104.1,171.5V197h-53.9v-25.5H1104.1z M1160.8,171.5V197h-53.9v-25.5H1160.8z
		 M1217.5,171.5V197h-53.9v-25.5H1217.5z M1274.2,171.5V197h-53.9v-25.5H1274.2z M1330.9,171.5V197H1277v-25.5H1330.9z
		 M1248.7,225.4v-25.5h53.9v25.5H1248.7z M1192,225.4v-25.5h53.9v25.5H1192z M1135.3,225.4v-25.5h53.9v25.5H1135.3z M1078.6,225.4
		v-25.5h53.9v25.5H1078.6z M1021.9,225.4v-25.5h53.9v25.5H1021.9z M965.2,225.4v-25.5h53.9v25.5H965.2z M908.5,225.4v-25.5h53.9
		v25.5H908.5z M851.8,225.4v-25.5h53.9v25.5H851.8z M795.1,225.4v-25.5H849v25.5H795.1z M738.4,225.4v-25.5h53.9v25.5H738.4z
		 M681.7,225.4v-25.5h53.9v25.5H681.7z M625,225.4v-25.5h53.9v25.5H625z M568.3,225.4v-25.5h53.9v25.5H568.3z M511.7,225.4v-25.5
		h53.9v25.5H511.7z M455,225.4v-25.5h53.9v25.5H455z M398.3,225.4v-25.5h53.9v25.5H398.3z M395.4,199.8v25.5h-53.9v-25.5H395.4z
		 M1305.4,225.4v-25.5h53.9v25.5H1305.4z M338.7,199.8v25.5h-53.9v-25.5H338.7z M1362,225.4v-25.5h53.9v25.5H1362z M1362,168.7
		v-25.5h53.9v25.5H1362z M282,143.2v25.5h-53.9v-25.5H282z M282,199.8v25.5h-53.9v-25.5H282z M282,256.5V282h-53.9v-25.5H282z
		 M1418.7,282v-25.5h53.9V282H1418.7z M1418.7,225.4v-25.5h53.9v25.5H1418.7z M1418.7,168.7v-25.5h53.9v25.5H1418.7z M225.4,143.2
		v25.5h-53.9v-25.5H225.4z M225.4,199.8v25.5h-53.9v-25.5H225.4z M225.4,256.5V282h-53.9v-25.5H225.4z M1475.4,282v-25.5h53.9V282
		H1475.4z M1475.4,225.4v-25.5h53.9v25.5H1475.4z M1475.4,168.7v-25.5h53.9v25.5H1475.4z M1475.4,112V86.5h53.9V112H1475.4z
		 M168.7,86.5V112h-53.9V86.5H168.7z M168.7,143.2v25.5h-53.9v-25.5H168.7z M168.7,199.8v25.5h-53.9v-25.5H168.7z M168.7,256.5V282
		h-53.9v-25.5H168.7z M168.7,313.2v25.5h-53.9v-25.5H168.7z M1532.1,338.7v-25.5h53.9v25.5H1532.1z M1532.1,282v-25.5h53.9V282
		H1532.1z M1532.1,225.4v-25.5h53.9v25.5H1532.1z M1532.1,168.7v-25.5h53.9v25.5H1532.1z M1532.1,112V86.5h53.9V112H1532.1z
		 M112,86.5V112H58.1V86.5H112z M112,143.2v25.5H58.1v-25.5H112z M112,199.8v25.5H58.1v-25.5H112z M112,256.5V282H58.1v-25.5H112z
		 M112,313.2v25.5H58.1v-25.5H112z M1588.8,338.7v-25.5h53.9v25.5H1588.8z M1588.8,282v-25.5h53.9V282H1588.8z M1588.8,225.4v-25.5
		h53.9v25.5H1588.8z M1588.8,168.7v-25.5h53.9v25.5H1588.8z M1588.8,112V86.5h53.9V112H1588.8z M1588.8,55.3V29.8h53.9v25.5H1588.8z
		 M1614.3,26.9h-53.9V1.4h53.9V26.9z M1557.6,26.9h-53.9V1.4h53.9V26.9z M1500.9,26.9h-53.9V1.4h53.9V26.9z M1444.3,26.9h-53.9V1.4
		h53.9V26.9z M1387.6,26.9h-53.9V1.4h53.9V26.9z M1330.9,26.9H1277V1.4h53.9V26.9z M1274.2,26.9h-53.9V1.4h53.9V26.9z M1217.5,26.9
		h-53.9V1.4h53.9V26.9z M1160.8,26.9h-53.9V1.4h53.9V26.9z M1104.1,26.9h-53.9V1.4h53.9V26.9z M1047.4,26.9h-53.9V1.4h53.9V26.9z
		 M990.7,26.9h-53.9V1.4h53.9V26.9z M934,26.9h-53.9V1.4H934V26.9z M877.3,26.9h-53.9V1.4h53.9V26.9z M820.6,26.9h-53.9V1.4h53.9
		V26.9z M763.9,26.9h-53.9V1.4h53.9V26.9z M707.2,26.9h-53.9V1.4h53.9V26.9z M650.6,26.9h-53.9V1.4h53.9V26.9z M593.9,26.9H540V1.4
		h53.9V26.9z M537.2,26.9h-53.9V1.4h53.9V26.9z M480.5,26.9h-53.9V1.4h53.9V26.9z M423.8,26.9h-53.9V1.4h53.9V26.9z M367.1,26.9
		h-53.9V1.4h53.9V26.9z M310.4,26.9h-53.9V1.4h53.9V26.9z M253.7,26.9h-53.9V1.4h53.9V26.9z M197,26.9h-53.9V1.4H197V26.9z
		 M140.3,26.9H86.5V1.4h53.9V26.9z M83.6,26.9H29.8V1.4h53.9V26.9z M55.3,29.8v25.5H1.4V29.8H55.3z M26.9,58.1v25.5H1.4V58.1H26.9z
		 M55.3,86.5V112H1.4V86.5H55.3z M26.9,114.8v25.5H1.4v-25.5H26.9z M55.3,143.2v25.5H1.4v-25.5H55.3z M26.9,171.5V197H1.4v-25.5
		H26.9z M55.3,199.8v25.5H1.4v-25.5H55.3z M26.9,228.2v25.5H1.4v-25.5H26.9z M55.3,256.5V282H1.4v-25.5H55.3z M26.9,284.9v25.5H1.4
		v-25.5H26.9z M55.3,313.2v25.5H1.4v-25.5H55.3z M26.9,341.6v25.5H1.4v-25.5H26.9z M55.3,369.9v25.5H1.4v-25.5H55.3z M83.6,398.3
		v25.5H29.8v-25.5H83.6z M86.5,398.3h53.9v25.5H86.5V398.3z M143.2,398.3H197v25.5h-53.9V398.3z M199.8,398.3h53.9v25.5h-53.9V398.3
		z M256.5,398.3h53.9v25.5h-53.9V398.3z M313.2,398.3h53.9v25.5h-53.9V398.3z M369.9,398.3h53.9v25.5h-53.9V398.3z M426.6,398.3
		h53.9v25.5h-53.9V398.3z M483.3,398.3h53.9v25.5h-53.9V398.3z M540,398.3h53.9v25.5H540V398.3z M596.7,398.3h53.9v25.5h-53.9V398.3
		z M653.4,398.3h53.9v25.5h-53.9V398.3z M710.1,398.3h53.9v25.5h-53.9V398.3z M766.8,398.3h53.9v25.5h-53.9V398.3z M823.5,398.3
		h53.9v25.5h-53.9V398.3z M880.2,398.3H934v25.5h-53.9V398.3z M936.9,398.3h53.9v25.5h-53.9V398.3z M993.5,398.3h53.9v25.5h-53.9
		V398.3z M1050.2,398.3h53.9v25.5h-53.9V398.3z M1106.9,398.3h53.9v25.5h-53.9V398.3z M1163.6,398.3h53.9v25.5h-53.9V398.3z
		 M1220.3,398.3h53.9v25.5h-53.9V398.3z M1277,398.3h53.9v25.5H1277V398.3z M1333.7,398.3h53.9v25.5h-53.9V398.3z M1390.4,398.3
		h53.9v25.5h-53.9V398.3z M1447.1,398.3h53.9v25.5h-53.9V398.3z M1503.8,398.3h53.9v25.5h-53.9V398.3z M1560.5,398.3h53.9v25.5
		h-53.9V398.3z M1617.2,398.3h53.9v25.5h-53.9V398.3z M1645.5,395.4v-25.5h53.9v25.5H1645.5z M1673.9,367.1v-25.5h25.5v25.5H1673.9z
		 M1645.5,338.7v-25.5h53.9v25.5H1645.5z M1673.9,310.4v-25.5h25.5v25.5H1673.9z M1645.5,282v-25.5h53.9V282H1645.5z M1673.9,253.7
		v-25.5h25.5v25.5H1673.9z M1645.5,225.4v-25.5h53.9v25.5H1645.5z M1673.9,197v-25.5h25.5V197H1673.9z M1645.5,168.7v-25.5h53.9
		v25.5H1645.5z M1673.9,140.3v-25.5h25.5v25.5H1673.9z M1645.5,112V86.5h53.9V112H1645.5z M1673.9,83.6V58.1h25.5v25.5H1673.9z
		 M1645.5,55.3V29.8h53.9v25.5H1645.5z M26.9,1.4v25.5H1.4V1.4H26.9z M1.4,398.3h25.5v25.5H1.4V398.3z M1673.9,423.8v-25.5h25.5
		v25.5H1673.9z"/>
</g>
</svg>
